<svg width="48" height="48" viewBox="0 0 48 48" fill="none" xmlns="http://www.w3.org/2000/svg">
<rect width="48" height="48" rx="24" fill="#F2994A"/>
<path d="M23.9999 10.9705C16.816 10.9705 10.9714 16.8151 10.9714 23.999V29.3968C10.9714 30.7309 12.14 31.8162 13.5771 31.8162H14.8799C15.2255 31.8162 15.5569 31.6789 15.8012 31.4346C16.0455 31.1903 16.1828 30.8589 16.1828 30.5133V23.8127C16.1828 23.4672 16.0455 23.1358 15.8012 22.8915C15.5569 22.6471 15.2255 22.5099 14.8799 22.5099H13.697C14.4213 17.4678 18.7599 13.5762 23.9999 13.5762C29.24 13.5762 33.5786 17.4678 34.3029 22.5099H33.1199C32.7744 22.5099 32.443 22.6471 32.1987 22.8915C31.9544 23.1358 31.8171 23.4672 31.8171 23.8127V31.8162C31.8171 33.2532 30.6484 34.4219 29.2114 34.4219H26.6057V33.119H21.3942V37.0276H29.2114C32.0855 37.0276 34.4228 34.6903 34.4228 31.8162C35.8599 31.8162 37.0285 30.7309 37.0285 29.3968V23.999C37.0285 16.8151 31.1839 10.9705 23.9999 10.9705Z" fill="white"/>
</svg>
