<svg width="20" height="20" viewBox="0 0 20 20" fill="none" xmlns="http://www.w3.org/2000/svg">
<path fill-rule="evenodd" clip-rule="evenodd" d="M15.6825 9.04762C15.6825 12.712 12.712 15.6825 9.04762 15.6825C5.38325 15.6825 2.4127 12.712 2.4127 9.04762C2.4127 5.38325 5.38325 2.4127 9.04762 2.4127C12.712 2.4127 15.6825 5.38325 15.6825 9.04762ZM14.6682 16.1381C13.1246 17.3634 11.1715 18.0952 9.04762 18.0952C4.05075 18.0952 0 14.0444 0 9.04762C0 4.05075 4.05075 0 9.04762 0C14.0444 0 18.0952 4.05075 18.0952 9.04762C18.0952 11.1715 17.3634 13.1245 16.1381 14.6682L20 18.5301L18.5301 20L14.6682 16.1381Z" fill="black" fill-opacity="0.6"/>
</svg>
