<svg width="24" height="24" viewBox="0 0 24 24" fill="none" xmlns="http://www.w3.org/2000/svg">
<path d="M12 7.19292C9.33989 7.19292 7.19302 9.33979 7.19302 12C7.19302 14.6601 9.33989 16.807 12 16.807C14.6602 16.807 16.8071 14.6601 16.8071 12C16.8071 9.33979 14.6602 7.19292 12 7.19292ZM12 15.1242C10.2797 15.1242 8.87583 13.7203 8.87583 12C8.87583 10.2796 10.2797 8.87573 12 8.87573C13.7204 8.87573 15.1243 10.2796 15.1243 12C15.1243 13.7203 13.7204 15.1242 12 15.1242ZM17.004 5.87573C16.3829 5.87573 15.8813 6.3773 15.8813 6.99839C15.8813 7.61948 16.3829 8.12104 17.004 8.12104C17.6251 8.12104 18.1266 7.62183 18.1266 6.99839C18.1268 6.85091 18.0979 6.70484 18.0415 6.56855C17.9852 6.43226 17.9025 6.30842 17.7982 6.20414C17.6939 6.09985 17.5701 6.01717 17.4338 5.96081C17.2975 5.90446 17.1514 5.87555 17.004 5.87573ZM21.3704 12C21.3704 10.7062 21.3821 9.42417 21.3094 8.13276C21.2368 6.63276 20.8946 5.30151 19.7977 4.20464C18.6985 3.10542 17.3696 2.76558 15.8696 2.69292C14.5758 2.62026 13.2938 2.63198 12.0024 2.63198C10.7086 2.63198 9.42661 2.62026 8.13521 2.69292C6.63521 2.76558 5.30396 3.10776 4.20708 4.20464C3.10786 5.30386 2.76802 6.63276 2.69536 8.13276C2.62271 9.42651 2.63443 10.7085 2.63443 12C2.63443 13.2914 2.62271 14.5757 2.69536 15.8671C2.76802 17.3671 3.11021 18.6984 4.20708 19.7953C5.3063 20.8945 6.63521 21.2343 8.13521 21.307C9.42896 21.3796 10.711 21.3679 12.0024 21.3679C13.2961 21.3679 14.5782 21.3796 15.8696 21.307C17.3696 21.2343 18.7008 20.8921 19.7977 19.7953C20.8969 18.696 21.2368 17.3671 21.3094 15.8671C21.3844 14.5757 21.3704 13.2937 21.3704 12ZM19.3079 17.5265C19.1368 17.9531 18.9305 18.2718 18.6 18.5999C18.2696 18.9304 17.9532 19.1367 17.5266 19.3078C16.2938 19.7976 13.3665 19.6874 12 19.6874C10.6336 19.6874 7.70396 19.7976 6.47114 19.3101C6.04458 19.139 5.72583 18.9328 5.39771 18.6023C5.06724 18.2718 4.86099 17.9554 4.68989 17.5289C4.20239 16.2937 4.31255 13.3664 4.31255 12C4.31255 10.6335 4.20239 7.70386 4.68989 6.47105C4.86099 6.04448 5.06724 5.72573 5.39771 5.39761C5.72818 5.06948 6.04458 4.86089 6.47114 4.6898C7.70396 4.2023 10.6336 4.31245 12 4.31245C13.3665 4.31245 16.2961 4.2023 17.529 4.6898C17.9555 4.86089 18.2743 5.06714 18.6024 5.39761C18.9329 5.72808 19.1391 6.04448 19.3102 6.47105C19.7977 7.70386 19.6875 10.6335 19.6875 12C19.6875 13.3664 19.7977 16.2937 19.3079 17.5265Z" fill="black" fill-opacity="0.6"/>
</svg>
