<svg width="24" height="24" viewBox="0 0 24 24" fill="none" xmlns="http://www.w3.org/2000/svg">
<path d="M23.0005 12.0164C22.9989 12.5604 22.9571 13.1035 22.8755 13.6414C22.8167 14.0626 22.7333 14.4799 22.6255 14.8914C22.543 15.1976 22.448 15.4964 22.3405 15.7914C22.1736 16.2489 21.9756 16.6945 21.748 17.1251C20.8746 18.7902 19.5889 20.2036 18.0137 21.2304C16.4386 22.2571 14.6265 22.863 12.7505 22.9901C12.5005 23.0076 12.2505 23.0164 12.0005 23.0164C11.7505 23.0164 11.5005 23.0076 11.2505 22.9901C8.96644 22.8356 6.78746 21.9723 5.01733 20.5206C3.24719 19.0689 1.97411 17.101 1.37552 14.8914C1.26779 14.4799 1.18431 14.0626 1.12552 13.6414C0.901282 12.1398 0.990321 10.608 1.38703 9.14247C1.78374 7.67696 2.47954 6.30944 3.43062 5.12599C4.3817 3.94254 5.56747 2.96879 6.91329 2.26604C8.25911 1.56328 9.73584 1.14673 11.2505 1.04261C11.3193 1.03636 11.388 1.03261 11.4568 1.02886C11.6368 1.01636 11.818 1.01636 12.0005 1.01636C12.2505 1.01636 12.5005 1.02511 12.7505 1.04261C12.8068 1.04261 12.8618 1.04261 12.9168 1.05511C15.6659 1.28489 18.2283 2.53925 20.096 4.5695C21.9637 6.59975 23.0004 9.25768 23.0005 12.0164Z" fill="#840015"/>
<path d="M22.875 13.6221C22.8162 14.0427 22.7327 14.4595 22.625 14.8703H1.375C1.26727 14.4595 1.18379 14.0427 1.125 13.6221H22.875Z" fill="white"/>
<path fill-rule="evenodd" clip-rule="evenodd" d="M0.981323 13.4971H23.0187L22.9988 13.6394C22.9393 14.0648 22.8549 14.4864 22.7459 14.902L22.7215 14.9953H1.27856L1.2541 14.902C1.14512 14.4864 1.06068 14.0648 1.00121 13.6394L0.981323 13.4971ZM1.26967 13.7471C1.32121 14.0828 1.38869 14.4159 1.4719 14.7453H22.5281C22.6113 14.4159 22.6788 14.0828 22.7303 13.7471H1.26967Z" fill="white"/>
<path d="M12.75 1.04117V22.9575C12.5 22.975 12.25 22.9837 12 22.9837C11.75 22.9837 11.5 22.975 11.25 22.9575V1.04117C11.3187 1.03493 11.3875 1.03118 11.4563 1.02744C11.6362 1.01495 11.8175 1.01495 12 1.01495C12.25 1.01495 12.5 1.02369 12.75 1.04117Z" fill="white"/>
<path fill-rule="evenodd" clip-rule="evenodd" d="M12 1.13995C11.8168 1.13995 11.6399 1.14 11.4649 1.15214L11.463 1.15226C11.4333 1.15389 11.404 1.15547 11.375 1.15724V22.8403C11.5833 22.8526 11.7917 22.8587 12 22.8587C12.2083 22.8587 12.4167 22.8526 12.625 22.8403V1.15837C12.4167 1.14609 12.2083 1.13995 12 1.13995ZM11.9979 0.889954H12C12.2529 0.889954 12.5058 0.898793 12.7587 0.916471L12.875 0.924599V23.0741L12.7587 23.0822C12.5058 23.0999 12.2529 23.1087 12 23.1087C11.7471 23.1087 11.4942 23.0999 11.2413 23.0822L11.125 23.0741V0.927L11.2387 0.916678C11.3097 0.910233 11.3803 0.906385 11.4484 0.902679L11.4495 0.902621L11.4563 1.02744L11.4484 0.902679C11.6327 0.889897 11.8168 0.889953 11.9979 0.889954Z" fill="white"/>
<path d="M22.3348 15.769C22.1679 16.2259 21.9699 16.6709 21.7423 17.1009L20.3148 14.8703L19.5161 13.622L12.7498 3.04956L11.4561 1.02744C11.6361 1.01495 11.8173 1.01495 11.9998 1.01495C12.2498 1.01495 12.4998 1.02369 12.7498 1.04117C12.8061 1.04117 12.8611 1.04117 12.9161 1.05365L20.9611 13.622L21.7598 14.8703L22.3348 15.769Z" fill="white"/>
<path fill-rule="evenodd" clip-rule="evenodd" d="M11.6781 1.14255L12.8551 2.98218L19.6213 13.5547L21.7307 16.8509C21.9053 16.5041 22.0606 16.1479 22.196 15.784L21.6545 14.9376L20.8558 13.6894L12.8412 1.16854C12.8149 1.16636 12.7856 1.16617 12.7498 1.16617H12.741C12.4939 1.14889 12.2469 1.13995 11.9998 1.13995C11.8906 1.13995 11.7837 1.13997 11.6781 1.14255ZM11.9977 0.889954H11.9998C12.2512 0.889954 12.5027 0.898692 12.7541 0.916166C12.7543 0.916166 12.754 0.916166 12.7541 0.916166C12.8074 0.916151 12.8749 0.916133 12.9437 0.931749L12.9937 0.943092L21.0663 13.5547L21.8651 14.8029L22.4734 15.7538L22.4522 15.8119C22.2833 16.2741 22.083 16.7243 21.8528 17.1593L21.7525 17.3487L20.2095 14.9377L12.6445 3.11694L11.2372 0.917312L11.4474 0.902735C11.6317 0.889953 11.8166 0.889953 11.9977 0.889954Z" fill="white"/>
</svg>
