<svg width="56" height="56" viewBox="0 0 56 56" fill="none" xmlns="http://www.w3.org/2000/svg">
<path d="M35.7458 10.9214L45.0719 20.2475L43.3348 21.9849L34.0087 12.6588L35.7458 10.9214Z" fill="#F2C94C"/>
<path d="M36.5083 5.49155C36.964 5.03595 37.7028 5.03595 38.1585 5.49155L50.5083 17.8417C50.964 18.2973 50.964 19.0359 50.5083 19.4916L48.8584 21.1415C48.403 21.5971 47.6642 21.5971 47.2085 21.1415L34.8584 8.7914C34.403 8.33577 34.403 7.59708 34.8584 7.14148L36.5083 5.49155Z" fill="#F2994A"/>
<path fill-rule="evenodd" clip-rule="evenodd" d="M12.8333 7C12.189 7 11.6667 7.52234 11.6667 8.16666V11.6667H9.33334V8.16666C9.33334 6.23366 10.9003 4.66666 12.8333 4.66666H24.5C26.4329 4.66666 28 6.23366 28 8.16666V11.6667H25.6667V8.16666C25.6667 7.52234 25.1442 7 24.5 7H12.8333Z" fill="#F2994A"/>
<path fill-rule="evenodd" clip-rule="evenodd" d="M9.33332 11.6667C6.75599 11.6667 4.66666 13.756 4.66666 16.3333V46.6667C4.66666 49.2441 6.75599 51.3333 9.33332 51.3333H39.6667C42.2441 51.3333 44.3333 49.2441 44.3333 46.6667V26.0003C44.3333 24.7634 43.8424 23.5772 42.9681 22.7021L38.1355 17.8646L33.3044 13.0335C32.4291 12.1583 31.2422 11.6667 30.0046 11.6667H9.33332ZM28 21L16.3333 35H21L18.6667 44.3333L30.3333 30.3333H25.6667L28 21Z" fill="url(#paint0_radial)"/>
<defs>
<radialGradient id="paint0_radial" cx="0" cy="0" r="1" gradientUnits="userSpaceOnUse" gradientTransform="translate(28.5622 27.2159) rotate(129.037) scale(31.1107 26.5845)">
<stop stop-color="#FFC700"/>
<stop offset="1" stop-color="#FF7A00"/>
</radialGradient>
</defs>
</svg>
