<svg width="40" height="40" viewBox="0 0 40 40" fill="none" xmlns="http://www.w3.org/2000/svg">
<g clip-path="url(#clip0)">
<path d="M40.0004 20.0287C39.9974 21.0178 39.9215 22.0053 39.7731 22.9832C39.6662 23.7491 39.5144 24.5079 39.3186 25.256C39.1686 25.8128 38.9958 26.356 38.8004 26.8923C38.4968 27.7242 38.1369 28.5344 37.7231 29.3173C36.135 32.3448 33.7974 34.9146 30.9335 36.7814C28.0695 38.6483 24.7749 39.7498 21.364 39.981C20.9095 40.0128 20.4549 40.0287 20.0004 40.0287C19.5458 40.0287 19.0913 40.0128 18.6367 39.981C14.4839 39.7001 10.5221 38.1305 7.30366 35.4909C4.08523 32.8514 1.77052 29.2735 0.682188 25.256C0.486308 24.5079 0.334532 23.7491 0.227643 22.9832C-0.180065 20.253 -0.018176 17.468 0.703118 14.8034C1.42441 12.1389 2.68949 9.65248 4.41873 7.50075C6.14797 5.34903 8.30391 3.57857 10.7509 2.30083C13.1978 1.02308 15.8828 0.265722 18.6367 0.0764138C18.7617 0.0650502 18.8867 0.0582321 19.0117 0.0514139C19.339 0.0286866 19.6686 0.0286865 20.0004 0.0286865C20.4549 0.0286865 20.9095 0.0445956 21.364 0.0764138C21.4663 0.0764138 21.5663 0.0764139 21.6663 0.0991412C26.6646 0.516933 31.3235 2.79758 34.7194 6.48895C38.1153 10.1803 40.0001 15.0129 40.0004 20.0287Z" fill="black" fill-opacity="0.87"/>
<path d="M39.7726 22.9492C39.6657 23.714 39.514 24.4718 39.3181 25.2187H0.681718C0.485838 24.4718 0.334062 23.714 0.227173 22.9492H39.7726Z" fill="white" stroke="white" stroke-width="0.25" stroke-miterlimit="10"/>
<path d="M21.3636 0.0748813V39.9228C20.909 39.9546 20.4545 39.9705 19.9999 39.9705C19.5454 39.9705 19.0908 39.9546 18.6363 39.9228V0.0748813C18.7613 0.0635337 18.8863 0.0567253 19.0113 0.0499168C19.3386 0.0272218 19.6681 0.0272217 19.9999 0.0272217C20.4545 0.0272217 20.909 0.0431082 21.3636 0.0748813Z" fill="white" stroke="white" stroke-width="0.25" stroke-miterlimit="10"/>
<path d="M38.7908 26.8528C38.4872 27.6835 38.1273 28.4925 37.7135 29.2743L35.118 25.2187L33.6658 22.9492L21.3635 3.72651L19.0112 0.0499168C19.3385 0.0272218 19.668 0.0272217 19.9999 0.0272217C20.4544 0.0272217 20.909 0.0431082 21.3635 0.0748813C21.4658 0.0748813 21.5658 0.0748814 21.6658 0.0975764L36.293 22.9492L37.7453 25.2187L38.7908 26.8528Z" fill="white" stroke="white" stroke-width="0.25" stroke-miterlimit="10"/>
</g>
<defs>
<clipPath id="clip0">
<rect width="40" height="40" fill="white"/>
</clipPath>
</defs>
</svg>
