
<svg width="186" height="100" viewBox="0 0 186 100" fill="none" xmlns="http://www.w3.org/2000/svg">
<g clip-path="url(#clip0)">
<path d="M93.4479 29.4643C94.6826 29.4643 95.6835 28.4649 95.6835 27.2321C95.6835 25.9994 94.6826 25 93.4479 25C92.2132 25 91.2123 25.9994 91.2123 27.2321C91.2123 28.4649 92.2132 29.4643 93.4479 29.4643Z" fill="#0A459E"/>
<path d="M93.4479 75C94.6826 75 95.6835 74.0006 95.6835 72.7679C95.6835 71.5351 94.6826 70.5357 93.4479 70.5357C92.2132 70.5357 91.2123 71.5351 91.2123 72.7679C91.2123 74.0006 92.2132 75 93.4479 75Z" fill="#0A459E"/>
<path d="M107.156 35.0922C108.029 35.9639 109.445 35.9639 110.318 35.0922C111.191 34.2205 111.191 32.8072 110.318 31.9355C109.445 31.0638 108.029 31.0638 107.156 31.9355C106.283 32.8072 106.283 34.2205 107.156 35.0922Z" fill="#0A459E"/>
<path d="M74.9081 67.2909C75.7811 68.1626 77.1966 68.1626 78.0697 67.2909C78.9427 66.4192 78.9427 65.0059 78.0697 64.1341C77.1966 63.2624 75.7811 63.2624 74.9081 64.1341C74.035 65.0059 74.035 66.4192 74.9081 67.2909Z" fill="#0A459E"/>
<path d="M113.567 49.5536C113.567 50.7863 114.567 51.7857 115.802 51.7857C117.037 51.7857 118.038 50.7863 118.038 49.5536C118.038 48.3208 117.037 47.3214 115.802 47.3214C114.567 47.3214 113.567 48.3208 113.567 49.5536Z" fill="#0A459E"/>
<path d="M67.9603 49.5536C67.9603 50.7863 68.9612 51.7857 70.1959 51.7857C71.4306 51.7857 72.4315 50.7863 72.4315 49.5536C72.4315 48.3208 71.4306 47.3214 70.1959 47.3214C68.9612 47.3214 67.9603 48.3208 67.9603 49.5536Z" fill="#0A459E"/>
<path d="M107.035 64.1342C106.162 65.0059 106.162 66.4192 107.035 67.2909C107.908 68.1626 109.324 68.1626 110.197 67.2909C111.07 66.4192 111.07 65.0059 110.197 64.1342C109.324 63.2625 107.908 63.2625 107.035 64.1342Z" fill="#0A459E"/>
<path d="M74.7875 31.9356C73.9145 32.8073 73.9145 34.2206 74.7875 35.0923C75.6606 35.964 77.0761 35.964 77.9491 35.0923C78.8221 34.2206 78.8221 32.8073 77.9491 31.9356C77.0761 31.0638 75.6606 31.0638 74.7875 31.9356Z" fill="#0A459E"/>
<path d="M92.9998 72.7678C105.593 72.7678 115.803 62.5743 115.803 50C115.803 37.4256 105.593 27.2321 92.9998 27.2321C80.4061 27.2321 70.1969 37.4256 70.1969 50C70.1969 62.5743 80.4061 72.7678 92.9998 72.7678Z" stroke="#0A459E"/>
<path d="M92.999 82.5893C111.025 82.5893 125.638 67.9986 125.638 50C125.638 32.0014 111.025 17.4107 92.999 17.4107C74.9727 17.4107 60.3596 32.0014 60.3596 50C60.3596 67.9986 74.9727 82.5893 92.999 82.5893Z" stroke="#5C9DFF"/>
<path d="M93.4459 80.3571C92.2112 80.3571 91.2103 81.3565 91.2103 82.5893C91.2103 83.822 92.2112 84.8214 93.4459 84.8214C94.6806 84.8214 95.6815 83.822 95.6815 82.5893C95.6815 81.3565 94.6806 80.3571 93.4459 80.3571Z" fill="#5C9DFF"/>
<path d="M93.4459 15.1786C92.2112 15.1786 91.2103 16.178 91.2103 17.4107C91.2103 18.6435 92.2112 19.6429 93.4459 19.6429C94.6806 19.6429 95.6815 18.6435 95.6815 17.4107C95.6815 16.178 94.6806 15.1786 93.4459 15.1786Z" fill="#5C9DFF"/>
<path d="M70.9164 70.8809C70.0434 70.0092 68.6279 70.0092 67.7548 70.8809C66.8818 71.7526 66.8818 73.166 67.7548 74.0377C68.6279 74.9094 70.0434 74.9094 70.9164 74.0377C71.7895 73.166 71.7895 71.7526 70.9164 70.8809Z" fill="#5C9DFF"/>
<path d="M117.074 24.7926C116.201 23.9209 114.786 23.9209 113.913 24.7926C113.04 25.6643 113.04 27.0776 113.913 27.9493C114.786 28.821 116.201 28.8211 117.074 27.9493C117.947 27.0776 117.947 25.6643 117.074 24.7926Z" fill="#5C9DFF"/>
<path d="M71.8108 28.8422C72.6839 27.9705 72.6839 26.5572 71.8108 25.6855C70.9378 24.8138 69.5223 24.8138 68.6492 25.6855C67.7762 26.5572 67.7762 27.9705 68.6492 28.8422C69.5223 29.7139 70.9378 29.7139 71.8108 28.8422Z" fill="#5C9DFF"/>
<path d="M117.967 74.9304C118.84 74.0587 118.84 72.6454 117.967 71.7737C117.094 70.902 115.679 70.902 114.806 71.7737C113.933 72.6454 113.933 74.0587 114.806 74.9304C115.679 75.8021 117.094 75.8021 117.967 74.9304Z" fill="#5C9DFF"/>
<path d="M62.5962 49.5536C62.5962 48.3208 61.5953 47.3214 60.3606 47.3214C59.1259 47.3214 58.125 48.3208 58.125 49.5536C58.125 50.7863 59.1259 51.7857 60.3606 51.7857C61.5953 51.7857 62.5962 50.7863 62.5962 49.5536Z" fill="#5C9DFF"/>
<path d="M127.874 49.5536C127.874 48.3208 126.874 47.3214 125.639 47.3214C124.404 47.3214 123.403 48.3208 123.403 49.5536C123.403 50.7863 124.404 51.7857 125.639 51.7857C126.874 51.7857 127.874 50.7863 127.874 49.5536Z" fill="#5C9DFF"/>
<path d="M92.9996 89.7322C114.977 89.7322 132.793 71.9435 132.793 50C132.793 28.0566 114.977 10.2679 92.9996 10.2679C71.0224 10.2679 53.2063 28.0566 53.2063 50C53.2063 71.9435 71.0224 89.7322 92.9996 89.7322Z" stroke="#C2DBFF"/>
<path d="M93.4459 87.5C92.2112 87.5 91.2103 88.4994 91.2103 89.7321C91.2103 90.9649 92.2112 91.9643 93.4459 91.9643C94.6806 91.9643 95.6815 90.9649 95.6815 89.7321C95.6815 88.4994 94.6806 87.5 93.4459 87.5Z" fill="#C2DBFF"/>
<path d="M93.4459 8.03571C92.2112 8.03571 91.2103 9.03508 91.2103 10.2679C91.2103 11.5006 92.2112 12.5 93.4459 12.5C94.6806 12.5 95.6815 11.5006 95.6815 10.2679C95.6815 9.03508 94.6806 8.03571 93.4459 8.03571Z" fill="#C2DBFF"/>
<path d="M55.8898 50C55.8898 48.7673 54.8889 47.7679 53.6542 47.7679C52.4196 47.7679 51.4187 48.7673 51.4187 50C51.4187 51.2328 52.4196 52.2322 53.6542 52.2322C54.8889 52.2322 55.8898 51.2328 55.8898 50Z" fill="#C2DBFF"/>
<path d="M135.477 50C135.477 48.7673 134.476 47.7679 133.242 47.7679C132.007 47.7679 131.006 48.7673 131.006 50C131.006 51.2328 132.007 52.2322 133.242 52.2322C134.476 52.2322 135.477 51.2328 135.477 50Z" fill="#C2DBFF"/>
<path d="M66.8897 23.4835C67.7628 22.6118 67.7628 21.1985 66.8897 20.3268C66.0167 19.4551 64.6012 19.4551 63.7281 20.3268C62.8551 21.1985 62.8551 22.6118 63.7281 23.4835C64.6012 24.3552 66.0167 24.3552 66.8897 23.4835Z" fill="#C2DBFF"/>
<path d="M123.165 79.6732C124.038 78.8015 124.038 77.3882 123.165 76.5165C122.292 75.6448 120.877 75.6448 120.004 76.5165C119.131 77.3882 119.131 78.8015 120.004 79.6732C120.877 80.5449 122.292 80.5449 123.165 79.6732Z" fill="#C2DBFF"/>
<path d="M120.005 23.4834C120.878 24.3551 122.294 24.3551 123.167 23.4834C124.04 22.6117 124.04 21.1984 123.167 20.3267C122.294 19.455 120.878 19.455 120.005 20.3267C119.132 21.1984 119.132 22.6117 120.005 23.4834Z" fill="#C2DBFF"/>
<path d="M63.7292 79.6732C64.6023 80.5449 66.0178 80.5449 66.8908 79.6732C67.7639 78.8015 67.7639 77.3882 66.8908 76.5165C66.0178 75.6448 64.6023 75.6448 63.7292 76.5165C62.8562 77.3882 62.8562 78.8015 63.7292 79.6732Z" fill="#C2DBFF"/>
<path d="M93.0006 97.7678C119.423 97.7678 140.842 76.3814 140.842 50C140.842 23.6185 119.423 2.23212 93.0006 2.23212C66.5785 2.23212 45.1592 23.6185 45.1592 50C45.1592 76.3814 66.5785 97.7678 93.0006 97.7678Z" stroke="#E1EDFF"/>
<path d="M93.4479 4.46429C94.6826 4.46429 95.6835 3.46492 95.6835 2.23214C95.6835 0.999364 94.6826 0 93.4479 0C92.2132 0 91.2123 0.999364 91.2123 2.23214C91.2123 3.46492 92.2132 4.46429 93.4479 4.46429Z" fill="#E1EDFF"/>
<path d="M93.4479 100C94.6826 100 95.6835 99.0006 95.6835 97.7679C95.6835 96.5351 94.6826 95.5357 93.4479 95.5357C92.2132 95.5357 91.2123 96.5351 91.2123 97.7679C91.2123 99.0006 92.2132 100 93.4479 100Z" fill="#E1EDFF"/>
<path d="M25.0385 69.6429H0L11.2241 54.4643L0 39.2857H25.0385V69.6429Z" fill="#0A459E"/>
<path d="M21.4623 65.9632L25.0393 69.6429V39.2857H21.4623V65.9632Z" fill="#00B2FF"/>
<path d="M160.962 39.2857H186.001L174.776 54.4643L186.001 69.6429H160.962V39.2857Z" fill="#0A459E"/>
<path d="M164.539 65.9632L160.962 69.6429V39.2857H164.539V65.9632Z" fill="#00B2FF"/>
<path d="M164.539 35.7143H21.4623V66.0714H164.539V35.7143Z" fill="#0047FF"/>
<path d="M36.5932 56.2639V43.2373H42.8389C43.5585 43.2373 44.1768 43.4989 44.6937 44.022C45.2177 44.5452 45.4797 45.1695 45.4797 45.8949V49.1909C45.4797 49.9162 45.2212 50.5371 44.7042 51.0533C44.1872 51.5695 43.5655 51.8276 42.8389 51.8276H38.3747V56.2639C38.3747 56.5081 38.2874 56.7173 38.1127 56.8918C37.945 57.0591 37.739 57.1428 37.4944 57.1428C37.243 57.1428 37.0299 57.0591 36.8552 56.8918C36.6806 56.7173 36.5932 56.5081 36.5932 56.2639ZM38.3747 50.0697H42.8389C43.0764 50.0697 43.2825 49.9861 43.4572 49.8186C43.6318 49.6443 43.7192 49.435 43.7192 49.1909V45.8949C43.7192 45.6508 43.6318 45.445 43.4572 45.2776C43.2825 45.1032 43.0764 45.0161 42.8389 45.0161H38.3747V50.0697ZM49.7275 57.1428V44.1162C49.7275 43.879 49.8149 43.6733 49.9895 43.4989C50.1642 43.3244 50.3703 43.2373 50.6078 43.2373C50.8453 43.2373 51.0514 43.3244 51.2261 43.4989C51.4007 43.6733 51.4881 43.879 51.4881 44.1162V55.385H57.7127C57.9573 55.385 58.1668 55.4722 58.3415 55.6466C58.5232 55.814 58.6139 56.0198 58.6139 56.2639C58.6139 56.5081 58.5232 56.7173 58.3415 56.8918C58.1668 57.0591 57.9573 57.1428 57.7127 57.1428H49.7275ZM62.8409 54.5062V44.1371C62.8409 43.893 62.9282 43.6837 63.1029 43.5094C63.2775 43.3279 63.4837 43.2373 63.7212 43.2373C63.9587 43.2373 64.1648 43.3244 64.3394 43.4989C64.5141 43.6733 64.6014 43.879 64.6014 44.1162V54.5062C64.6014 54.7363 64.6887 54.9386 64.8634 55.113C65.038 55.2804 65.2441 55.3641 65.4816 55.3641H69.0865C69.331 55.3641 69.5371 55.2804 69.7048 55.113C69.8795 54.9456 69.9668 54.7433 69.9668 54.5062V44.1371C69.9668 43.886 70.0506 43.6733 70.2183 43.4989C70.3929 43.3244 70.6025 43.2373 70.847 43.2373C71.0916 43.2373 71.2976 43.3244 71.4653 43.4989C71.64 43.6733 71.7273 43.886 71.7273 44.1371V54.4852C71.7273 55.2106 71.4653 55.835 70.9414 56.3581C70.4244 56.8812 69.8061 57.1428 69.0865 57.1428H65.4816C64.7551 57.1428 64.1333 56.8847 63.6164 56.3686C63.0994 55.8524 62.8409 55.2316 62.8409 54.5062ZM75.9752 45.6334V43.2582H84.8616V45.6543C84.8616 45.8984 84.7743 46.1077 84.5997 46.282C84.4249 46.4494 84.2189 46.5332 83.9813 46.5332C83.7368 46.5332 83.5237 46.446 83.3421 46.2716C83.1675 46.0972 83.0801 45.8914 83.0801 45.6543V45.0161H81.2986V56.2639C81.2986 56.5081 81.2113 56.7173 81.0367 56.8918C80.862 57.0591 80.6559 57.1428 80.4184 57.1428C80.1669 57.1428 79.9538 57.0591 79.7791 56.8918C79.6045 56.7173 79.5172 56.5081 79.5172 56.2639V45.0161H77.7357V45.6334C77.7357 45.8775 77.6484 46.0868 77.4737 46.2611C77.306 46.4286 77.0999 46.5123 76.8554 46.5123C76.611 46.5123 76.4013 46.4286 76.2267 46.2611C76.059 46.0868 75.9752 45.8775 75.9752 45.6334ZM95.6486 44.5243L97.5873 48.4689C97.86 49.006 97.996 49.5885 97.996 50.2162C97.996 50.8301 97.86 51.409 97.5873 51.9531L95.6486 55.8559C95.2364 56.7138 94.538 57.1428 93.5525 57.1428C93.0848 57.1428 92.6619 57.0208 92.2845 56.7766C91.9143 56.5325 91.6353 56.2256 91.4466 55.8559L89.4972 51.9531C89.2388 51.4439 89.1094 50.865 89.1094 50.2162C89.1094 49.5675 89.2388 48.9851 89.4972 48.4689L91.4466 44.5243C91.8866 43.6662 92.5885 43.2373 93.5525 43.2373C94.5308 43.2373 95.2292 43.6662 95.6486 44.5243ZM92.9659 45.4032L91.1426 49.1071C90.9744 49.4769 90.8913 49.8395 90.8913 50.1953C90.8913 50.5789 90.9744 50.9452 91.1426 51.2939L93.0187 55.0397C93.1161 55.2699 93.2941 55.385 93.5525 55.385C93.7761 55.385 93.9478 55.2699 94.0658 55.0397L95.9526 51.2939C96.127 50.9243 96.2146 50.558 96.2146 50.1953C96.2146 49.8117 96.127 49.4489 95.9526 49.1071L94.1078 45.4032C93.9889 45.1311 93.8038 44.9951 93.5525 44.9951C93.3012 44.9951 93.1054 45.1311 92.9659 45.4032ZM111.13 44.1371V57.1428H108.762L104.025 46.3448V56.2639C104.025 56.5081 103.938 56.7173 103.763 56.8918C103.596 57.0591 103.39 57.1428 103.145 57.1428C102.901 57.1428 102.691 57.0591 102.516 56.8918C102.348 56.7173 102.265 56.5081 102.265 56.2639V43.2373H104.602L109.349 54.0144V44.1371C109.349 43.893 109.436 43.6837 109.611 43.5094C109.793 43.3279 110.005 43.2373 110.25 43.2373C110.495 43.2373 110.7 43.3244 110.868 43.4989C111.043 43.6733 111.13 43.886 111.13 44.1371ZM116.258 43.2373H123.384C123.615 43.2373 123.818 43.3244 123.992 43.4989C124.174 43.6733 124.265 43.879 124.265 44.1162C124.265 44.3603 124.177 44.5731 124.003 44.7544C123.828 44.9288 123.622 45.0161 123.384 45.0161H120.723V55.385H123.384C123.629 55.385 123.835 55.4722 124.003 55.6466C124.177 55.814 124.265 56.0198 124.265 56.2639C124.265 56.5081 124.177 56.7173 124.003 56.8918C123.828 57.0591 123.622 57.1428 123.384 57.1428H116.258C116.014 57.1428 115.805 57.0591 115.629 56.8918C115.462 56.7173 115.378 56.5081 115.378 56.2639C115.378 56.0198 115.462 55.814 115.629 55.6466C115.805 55.4722 116.014 55.385 116.258 55.385H118.962V45.0161H116.258C116.014 45.0161 115.805 44.9288 115.629 44.7544C115.462 44.5801 115.378 44.3743 115.378 44.1371C115.378 43.886 115.462 43.6733 115.629 43.4989C115.805 43.3244 116.014 43.2373 116.258 43.2373ZM128.512 54.5062V44.1371C128.512 43.893 128.6 43.6837 128.774 43.5094C128.949 43.3279 129.155 43.2373 129.392 43.2373C129.63 43.2373 129.836 43.3244 130.011 43.4989C130.186 43.6733 130.273 43.879 130.273 44.1162V54.5062C130.273 54.7363 130.36 54.9386 130.535 55.113C130.71 55.2804 130.915 55.3641 131.153 55.3641H134.758C135.003 55.3641 135.208 55.2804 135.377 55.113C135.551 54.9456 135.639 54.7433 135.639 54.5062V44.1371C135.639 43.886 135.722 43.6733 135.89 43.4989C136.064 43.3244 136.274 43.2373 136.519 43.2373C136.763 43.2373 136.969 43.3244 137.136 43.4989C137.312 43.6733 137.398 43.886 137.398 44.1371V54.4852C137.398 55.2106 137.136 55.835 136.612 56.3581C136.096 56.8812 135.478 57.1428 134.758 57.1428H131.153C130.427 57.1428 129.805 56.8847 129.288 56.3686C128.771 55.8524 128.512 55.2316 128.512 54.5062ZM145.21 48.6991V48.2492L143.386 45.6543V56.2639C143.386 56.5081 143.299 56.7173 143.124 56.8918C142.957 57.0591 142.75 57.1428 142.506 57.1428C142.261 57.1428 142.052 57.0556 141.878 56.8812C141.71 56.7069 141.625 56.5011 141.625 56.2639V43.2373H143.9L146.069 46.3867L148.301 43.2373H150.533V56.2639C150.533 56.5081 150.443 56.7173 150.261 56.8918C150.086 57.0591 149.877 57.1428 149.632 57.1428C149.395 57.1428 149.188 57.0556 149.014 56.8812C148.839 56.7069 148.752 56.5011 148.752 56.2639V45.6961L146.97 48.2073V48.6991C146.97 48.9362 146.883 49.142 146.708 49.3164C146.534 49.4908 146.327 49.5779 146.089 49.5779C145.845 49.5779 145.636 49.4908 145.461 49.3164C145.294 49.142 145.21 48.9362 145.21 48.6991Z" fill="white"/>
</g>
<defs>
<clipPath id="clip0">
<rect width="186" height="100" fill="white"/>
</clipPath>
</defs>
</svg>
