<svg width="186" height="100" viewBox="0 0 186 100" fill="none" xmlns="http://www.w3.org/2000/svg">
<g clip-path="url(#clip0)">
<path d="M93.4473 29.4643C94.682 29.4643 95.6829 28.4649 95.6829 27.2321C95.6829 25.9994 94.682 25 93.4473 25C92.2126 25 91.2117 25.9994 91.2117 27.2321C91.2117 28.4649 92.2126 29.4643 93.4473 29.4643Z" fill="#91D600"/>
<path d="M93.4473 75C94.682 75 95.6829 74.0006 95.6829 72.7678C95.6829 71.5351 94.682 70.5357 93.4473 70.5357C92.2126 70.5357 91.2117 71.5351 91.2117 72.7678C91.2117 74.0006 92.2126 75 93.4473 75Z" fill="#91D600"/>
<path d="M107.156 35.0922C108.029 35.9639 109.444 35.9639 110.318 35.0922C111.191 34.2205 111.191 32.8072 110.318 31.9355C109.444 31.0638 108.029 31.0638 107.156 31.9355C106.283 32.8072 106.283 34.2205 107.156 35.0922Z" fill="#91D600"/>
<path d="M74.907 67.2909C75.7801 68.1626 77.1956 68.1626 78.0686 67.2909C78.9417 66.4192 78.9417 65.0059 78.0686 64.1341C77.1956 63.2624 75.7801 63.2624 74.907 64.1341C74.034 65.0059 74.034 66.4192 74.907 67.2909Z" fill="#91D600"/>
<path d="M113.567 49.5536C113.567 50.7863 114.568 51.7857 115.803 51.7857C117.037 51.7857 118.038 50.7863 118.038 49.5536C118.038 48.3208 117.037 47.3214 115.803 47.3214C114.568 47.3214 113.567 48.3208 113.567 49.5536Z" fill="#91D600"/>
<path d="M67.9615 49.5536C67.9615 50.7863 68.9624 51.7857 70.1971 51.7857C71.4317 51.7857 72.4326 50.7863 72.4326 49.5536C72.4326 48.3208 71.4317 47.3214 70.1971 47.3214C68.9624 47.3214 67.9615 48.3208 67.9615 49.5536Z" fill="#91D600"/>
<path d="M107.037 64.1342C106.164 65.0059 106.164 66.4192 107.037 67.2909C107.91 68.1626 109.325 68.1626 110.198 67.2909C111.071 66.4192 111.071 65.0059 110.198 64.1342C109.325 63.2625 107.91 63.2625 107.037 64.1342Z" fill="#91D600"/>
<path d="M74.7881 31.9355C73.9151 32.8072 73.9151 34.2205 74.7881 35.0922C75.6612 35.9639 77.0766 35.9639 77.9497 35.0922C78.8227 34.2205 78.8227 32.8072 77.9497 31.9355C77.0766 31.0638 75.6612 31.0638 74.7881 31.9355Z" fill="#91D600"/>
<path d="M93.0001 72.7678C105.594 72.7678 115.803 62.5743 115.803 50C115.803 37.4256 105.594 27.2321 93.0001 27.2321C80.4064 27.2321 70.1972 37.4256 70.1972 50C70.1972 62.5743 80.4064 72.7678 93.0001 72.7678Z" stroke="#91D600"/>
<path d="M92.9999 82.5893C111.026 82.5893 125.639 67.9986 125.639 50C125.639 32.0014 111.026 17.4107 92.9999 17.4107C74.9736 17.4107 60.3605 32.0014 60.3605 50C60.3605 67.9986 74.9736 82.5893 92.9999 82.5893Z" stroke="#BEFF33"/>
<path d="M93.4471 80.3571C92.2124 80.3571 91.2115 81.3565 91.2115 82.5893C91.2115 83.822 92.2124 84.8214 93.4471 84.8214C94.6818 84.8214 95.6827 83.822 95.6827 82.5893C95.6827 81.3565 94.6818 80.3571 93.4471 80.3571Z" fill="#BEFF33"/>
<path d="M93.4471 15.1786C92.2124 15.1786 91.2115 16.178 91.2115 17.4107C91.2115 18.6435 92.2124 19.6429 93.4471 19.6429C94.6818 19.6429 95.6827 18.6435 95.6827 17.4107C95.6827 16.178 94.6818 15.1786 93.4471 15.1786Z" fill="#BEFF33"/>
<path d="M70.9154 70.8809C70.0423 70.0092 68.6269 70.0092 67.7538 70.8809C66.8808 71.7526 66.8808 73.166 67.7538 74.0377C68.6269 74.9094 70.0423 74.9094 70.9154 74.0377C71.7884 73.166 71.7884 71.7526 70.9154 70.8809Z" fill="#BEFF33"/>
<path d="M117.074 24.7927C116.201 23.921 114.786 23.921 113.913 24.7927C113.04 25.6644 113.04 27.0778 113.913 27.9495C114.786 28.8212 116.201 28.8212 117.074 27.9495C117.947 27.0778 117.947 25.6644 117.074 24.7927Z" fill="#BEFF33"/>
<path d="M71.8097 28.8422C72.6828 27.9705 72.6828 26.5572 71.8097 25.6855C70.9367 24.8138 69.5212 24.8138 68.6481 25.6855C67.7751 26.5572 67.7751 27.9705 68.6481 28.8422C69.5212 29.7139 70.9367 29.7139 71.8097 28.8422Z" fill="#BEFF33"/>
<path d="M117.969 74.9304C118.842 74.0587 118.842 72.6454 117.969 71.7737C117.096 70.902 115.681 70.902 114.807 71.7737C113.934 72.6454 113.934 74.0587 114.807 74.9304C115.68 75.8021 117.096 75.8021 117.969 74.9304Z" fill="#BEFF33"/>
<path d="M62.5962 49.5536C62.5962 48.3208 61.5953 47.3214 60.3606 47.3214C59.1259 47.3214 58.125 48.3208 58.125 49.5536C58.125 50.7863 59.1259 51.7857 60.3606 51.7857C61.5953 51.7857 62.5962 50.7863 62.5962 49.5536Z" fill="#BEFF33"/>
<path d="M127.875 49.5536C127.875 48.3208 126.874 47.3214 125.64 47.3214C124.405 47.3214 123.404 48.3208 123.404 49.5536C123.404 50.7863 124.405 51.7857 125.64 51.7857C126.874 51.7857 127.875 50.7863 127.875 49.5536Z" fill="#BEFF33"/>
<path d="M93.0001 89.7322C114.977 89.7322 132.793 71.9435 132.793 50C132.793 28.0566 114.977 10.2679 93.0001 10.2679C71.0229 10.2679 53.2068 28.0566 53.2068 50C53.2068 71.9435 71.0229 89.7322 93.0001 89.7322Z" stroke="#D3FF75"/>
<path d="M93.4471 87.5C92.2124 87.5 91.2115 88.4994 91.2115 89.7321C91.2115 90.9649 92.2124 91.9643 93.4471 91.9643C94.6818 91.9643 95.6827 90.9649 95.6827 89.7321C95.6827 88.4994 94.6818 87.5 93.4471 87.5Z" fill="#D3FF75"/>
<path d="M93.4471 8.03571C92.2124 8.03571 91.2115 9.03508 91.2115 10.2679C91.2115 11.5006 92.2124 12.5 93.4471 12.5C94.6818 12.5 95.6827 11.5006 95.6827 10.2679C95.6827 9.03508 94.6818 8.03571 93.4471 8.03571Z" fill="#D3FF75"/>
<path d="M55.8893 50C55.8893 48.7672 54.8884 47.7678 53.6537 47.7678C52.4191 47.7678 51.4182 48.7672 51.4182 50C51.4182 51.2328 52.4191 52.2321 53.6537 52.2321C54.8884 52.2321 55.8893 51.2328 55.8893 50Z" fill="#D3FF75"/>
<path d="M135.476 50C135.476 48.7672 134.475 47.7678 133.24 47.7678C132.006 47.7678 131.005 48.7672 131.005 50C131.005 51.2328 132.006 52.2321 133.24 52.2321C134.475 52.2321 135.476 51.2328 135.476 50Z" fill="#D3FF75"/>
<path d="M66.8897 23.4835C67.7628 22.6118 67.7628 21.1985 66.8897 20.3268C66.0167 19.4551 64.6012 19.4551 63.7282 20.3268C62.8551 21.1985 62.8551 22.6118 63.7282 23.4835C64.6012 24.3552 66.0167 24.3552 66.8897 23.4835Z" fill="#D3FF75"/>
<path d="M123.165 79.6733C124.038 78.8016 124.038 77.3883 123.165 76.5166C122.292 75.6448 120.877 75.6448 120.004 76.5166C119.131 77.3883 119.131 78.8016 120.004 79.6733C120.877 80.545 122.292 80.545 123.165 79.6733Z" fill="#D3FF75"/>
<path d="M120.005 23.4834C120.878 24.3551 122.293 24.3551 123.166 23.4834C124.039 22.6117 124.039 21.1984 123.166 20.3267C122.293 19.455 120.878 19.455 120.005 20.3267C119.132 21.1984 119.132 22.6117 120.005 23.4834Z" fill="#D3FF75"/>
<path d="M63.7278 79.6732C64.6008 80.5449 66.0163 80.5449 66.8894 79.6732C67.7624 78.8015 67.7624 77.3882 66.8894 76.5165C66.0163 75.6448 64.6008 75.6448 63.7278 76.5165C62.8547 77.3882 62.8547 78.8015 63.7278 79.6732Z" fill="#D3FF75"/>
<path d="M92.9998 97.7678C119.422 97.7678 140.841 76.3814 140.841 50C140.841 23.6185 119.422 2.23212 92.9998 2.23212C66.5777 2.23212 45.1584 23.6185 45.1584 50C45.1584 76.3814 66.5777 97.7678 92.9998 97.7678Z" stroke="#DCFF97"/>
<path d="M93.4473 4.46429C94.682 4.46429 95.6829 3.46492 95.6829 2.23214C95.6829 0.999364 94.682 0 93.4473 0C92.2126 0 91.2117 0.999364 91.2117 2.23214C91.2117 3.46492 92.2126 4.46429 93.4473 4.46429Z" fill="#DCFF97"/>
<path d="M93.4473 100C94.682 100 95.6829 99.0006 95.6829 97.7678C95.6829 96.5351 94.682 95.5357 93.4473 95.5357C92.2126 95.5357 91.2117 96.5351 91.2117 97.7678C91.2117 99.0006 92.2126 100 93.4473 100Z" fill="#DCFF97"/>
<path d="M25.0385 69.6429H0L11.2241 54.4643L0 39.2857H25.0385V69.6429Z" fill="#91D600"/>
<path d="M21.4617 66.0714L25.0386 69.6429V39.2857H21.4617V66.0714Z" fill="#FFF500"/>
<path d="M160.962 39.2857H186L174.776 54.4643L186 69.6429H160.962V39.2857Z" fill="#91D600"/>
<path d="M164.539 66.0714L160.962 69.6429V39.2857H164.539V66.0714Z" fill="#FFF500"/>
<path d="M164.539 35.7143H21.4617V66.0714H164.539V35.7143Z" fill="#ADFF00"/>
<path d="M55.8683 56.2639V43.2373H62.093C62.8126 43.2373 63.4309 43.4989 63.9478 44.022C64.4718 44.5452 64.7338 45.1694 64.7338 45.8949V46.8994C64.7338 47.6319 64.4753 48.2596 63.9584 48.7827C63.4413 49.2989 62.8196 49.557 62.093 49.557H60.9717L64.5766 55.7303C64.6884 55.9117 64.7443 56.093 64.7443 56.2744C64.7443 56.5116 64.6534 56.7173 64.4718 56.8918C64.2901 57.0591 64.0841 57.1428 63.8536 57.1428C63.5042 57.1428 63.2388 56.9859 63.0571 56.672L58.9178 49.557H57.6498V56.2639C57.6498 56.5081 57.559 56.7173 57.3774 56.8918C57.2027 57.0591 56.9931 57.1428 56.7486 57.1428C56.5041 57.1428 56.2944 57.0591 56.1198 56.8918C55.9521 56.7173 55.8683 56.5081 55.8683 56.2639ZM57.6288 47.7993H62.093C62.3376 47.7993 62.5436 47.7155 62.7113 47.5481C62.8859 47.3737 62.9733 47.1644 62.9733 46.9203V45.8949C62.9733 45.6508 62.8859 45.445 62.7113 45.2776C62.5436 45.1032 62.3376 45.0161 62.093 45.0161H57.6288V47.7993ZM69.034 55.9186L72.597 43.8965C72.7368 43.457 73.0302 43.2373 73.4773 43.2373C73.9104 43.2373 74.1829 43.4221 74.2947 43.7919L77.8052 56.0024C77.8332 56.093 77.8471 56.1802 77.8471 56.2639C77.8471 56.5081 77.7633 56.7173 77.5957 56.8918C77.428 57.0591 77.2358 57.1428 77.0192 57.1428C76.5582 57.1428 76.2648 56.9301 76.139 56.5046L75.4264 54.119H71.4129L70.6374 56.672C70.6164 56.7836 70.5291 56.8918 70.3754 56.9963C70.2217 57.094 70.0541 57.1428 69.8724 57.1428C69.6139 57.1428 69.4008 57.0556 69.2332 56.8812C69.0655 56.7069 68.9817 56.4941 68.9817 56.243C68.9817 56.1384 68.9991 56.0302 69.034 55.9186ZM73.4563 47.3075L71.9473 52.3402H74.913L73.4563 47.3075ZM82.9753 43.2373H86.4543C86.9084 43.2443 87.3486 43.3908 87.7748 43.6768C88.2079 43.9627 88.5257 44.308 88.7284 44.7126L90.4681 48.2282C90.7963 48.863 90.9608 49.5257 90.9608 50.2162C90.9608 50.8579 90.7856 51.5171 90.4368 52.1937L88.6864 55.6676C88.4629 56.114 88.1415 56.4732 87.7224 56.7452C87.3032 57.0103 86.8351 57.1428 86.3182 57.1428H82.9543C82.7098 57.1428 82.5002 57.0556 82.3255 56.8812C82.1578 56.7069 82.074 56.501 82.074 56.2639C82.074 56.0198 82.1578 55.8105 82.3255 55.6361C82.5002 55.4548 82.7098 55.3641 82.9543 55.3641H83.8765V45.0161H82.9753C82.7308 45.0161 82.5212 44.9288 82.3465 44.7544C82.1789 44.5731 82.095 44.3603 82.095 44.1162C82.095 43.879 82.1789 43.6733 82.3465 43.4989C82.5212 43.3244 82.7308 43.2373 82.9753 43.2373ZM85.637 45.0161V55.385H86.2553C86.6465 55.385 86.9399 55.1932 87.1355 54.8095L88.8751 51.3567C89.0916 50.9033 89.1999 50.5231 89.1999 50.2162C89.1999 49.8326 89.1126 49.4698 88.938 49.128L87.1355 45.5496C86.9469 45.1939 86.6395 45.0161 86.2134 45.0161H85.637ZM96.1098 43.2373H103.235C103.466 43.2373 103.669 43.3244 103.843 43.4989C104.025 43.6733 104.116 43.879 104.116 44.1162C104.116 44.3603 104.028 44.5731 103.854 44.7544C103.679 44.9288 103.473 45.0161 103.235 45.0161H100.574V55.385H103.235C103.48 55.385 103.686 55.4722 103.854 55.6466C104.028 55.814 104.116 56.0198 104.116 56.2639C104.116 56.5081 104.028 56.7173 103.854 56.8918C103.679 57.0591 103.473 57.1428 103.235 57.1428H96.1098C95.8648 57.1428 95.6555 57.0591 95.4812 56.8918C95.313 56.7173 95.229 56.5081 95.229 56.2639C95.229 56.0198 95.313 55.814 95.4812 55.6466C95.6555 55.4722 95.8648 55.385 96.1098 55.385H98.8131V45.0161H96.1098C95.8648 45.0161 95.6555 44.9288 95.4812 44.7544C95.313 44.5801 95.229 44.3743 95.229 44.1371C95.229 43.886 95.313 43.6733 95.4812 43.4989C95.6555 43.3244 95.8648 43.2373 96.1098 43.2373ZM108.363 54.5061V44.1371C108.363 43.893 108.451 43.6837 108.625 43.5094C108.8 43.3279 109.006 43.2373 109.244 43.2373C109.481 43.2373 109.688 43.3244 109.862 43.4989C110.037 43.6733 110.124 43.879 110.124 44.1162V54.5061C110.124 54.7363 110.212 54.9385 110.386 55.113C110.561 55.2804 110.767 55.3641 111.004 55.3641H114.61C114.854 55.3641 115.059 55.2804 115.228 55.113C115.402 54.9456 115.49 54.7433 115.49 54.5061V44.1371C115.49 43.886 115.574 43.6733 115.741 43.4989C115.915 43.3244 116.125 43.2373 116.369 43.2373C116.615 43.2373 116.82 43.3244 116.988 43.4989C117.163 43.6733 117.25 43.886 117.25 44.1371V54.4852C117.25 55.2106 116.988 55.835 116.464 56.3581C115.947 56.8812 115.329 57.1428 114.61 57.1428H111.004C110.278 57.1428 109.656 56.8847 109.139 56.3685C108.622 55.8524 108.363 55.2316 108.363 54.5061ZM125.061 48.6991V48.2492L123.237 45.6543V56.2639C123.237 56.5081 123.15 56.7173 122.975 56.8918C122.808 57.0591 122.601 57.1428 122.357 57.1428C122.112 57.1428 121.903 57.0556 121.729 56.8812C121.561 56.7069 121.477 56.501 121.477 56.2639V43.2373H123.75L125.92 46.3867L128.152 43.2373H130.384V56.2639C130.384 56.5081 130.294 56.7173 130.112 56.8918C129.937 57.0591 129.728 57.1428 129.483 57.1428C129.246 57.1428 129.04 57.0556 128.865 56.8812C128.69 56.7069 128.603 56.501 128.603 56.2639V45.6961L126.821 48.2073V48.6991C126.821 48.9362 126.734 49.142 126.559 49.3164C126.385 49.4908 126.178 49.5779 125.941 49.5779C125.696 49.5779 125.487 49.4908 125.313 49.3164C125.145 49.142 125.061 48.9362 125.061 48.6991Z" fill="black"/>
</g>
<defs>
<clipPath id="clip0">
<rect width="186" height="100" fill="white"/>
</clipPath>
</defs>
</svg>
