<svg width="186" height="100" viewBox="0 0 186 100" fill="none" xmlns="http://www.w3.org/2000/svg">
<path d="M93.4471 29.4643C94.6818 29.4643 95.6827 28.4649 95.6827 27.2321C95.6827 25.9994 94.6818 25 93.4471 25C92.2124 25 91.2115 25.9994 91.2115 27.2321C91.2115 28.4649 92.2124 29.4643 93.4471 29.4643Z" fill="#5602C1"/>
<path d="M93.4471 75C94.6818 75 95.6827 74.0006 95.6827 72.7678C95.6827 71.5351 94.6818 70.5357 93.4471 70.5357C92.2124 70.5357 91.2115 71.5351 91.2115 72.7678C91.2115 74.0006 92.2124 75 93.4471 75Z" fill="#5602C1"/>
<path d="M107.156 35.0922C108.029 35.9639 109.444 35.9639 110.317 35.0922C111.191 34.2205 111.191 32.8072 110.317 31.9355C109.444 31.0638 108.029 31.0638 107.156 31.9355C106.283 32.8072 106.283 34.2205 107.156 35.0922Z" fill="#5602C1"/>
<path d="M74.9078 67.2909C75.7809 68.1626 77.1963 68.1626 78.0694 67.2909C78.9424 66.4192 78.9424 65.0059 78.0694 64.1341C77.1963 63.2624 75.7809 63.2624 74.9078 64.1341C74.0348 65.0059 74.0348 66.4192 74.9078 67.2909Z" fill="#5602C1"/>
<path d="M113.567 49.5536C113.567 50.7863 114.568 51.7857 115.803 51.7857C117.038 51.7857 118.038 50.7863 118.038 49.5536C118.038 48.3208 117.038 47.3214 115.803 47.3214C114.568 47.3214 113.567 48.3208 113.567 49.5536Z" fill="#5602C1"/>
<path d="M67.9615 49.5536C67.9615 50.7863 68.9624 51.7857 70.1971 51.7857C71.4318 51.7857 72.4327 50.7863 72.4327 49.5536C72.4327 48.3208 71.4318 47.3214 70.1971 47.3214C68.9624 47.3214 67.9615 48.3208 67.9615 49.5536Z" fill="#5602C1"/>
<path d="M107.036 64.1342C106.163 65.0059 106.163 66.4192 107.036 67.2909C107.909 68.1626 109.325 68.1626 110.198 67.2909C111.071 66.4192 111.071 65.0059 110.198 64.1342C109.325 63.2625 107.909 63.2625 107.036 64.1342Z" fill="#5602C1"/>
<path d="M74.7883 31.9355C73.9152 32.8072 73.9152 34.2205 74.7883 35.0922C75.6613 35.9639 77.0768 35.9639 77.9499 35.0922C78.8229 34.2205 78.8229 32.8072 77.9499 31.9355C77.0768 31.0638 75.6613 31.0638 74.7883 31.9355Z" fill="#5602C1"/>
<path d="M93 72.7678C105.594 72.7678 115.803 62.5743 115.803 50C115.803 37.4256 105.594 27.2321 93 27.2321C80.4063 27.2321 70.1971 37.4256 70.1971 50C70.1971 62.5743 80.4063 72.7678 93 72.7678Z" stroke="#5602C1"/>
<path d="M93 82.5893C111.026 82.5893 125.639 67.9986 125.639 50C125.639 32.0014 111.026 17.4107 93 17.4107C74.9737 17.4107 60.3606 32.0014 60.3606 50C60.3606 67.9986 74.9737 82.5893 93 82.5893Z" stroke="#A055FF"/>
<path d="M93.4471 80.3571C92.2124 80.3571 91.2115 81.3565 91.2115 82.5893C91.2115 83.822 92.2124 84.8214 93.4471 84.8214C94.6818 84.8214 95.6827 83.822 95.6827 82.5893C95.6827 81.3565 94.6818 80.3571 93.4471 80.3571Z" fill="#A055FF"/>
<path d="M93.4471 15.1786C92.2124 15.1786 91.2115 16.178 91.2115 17.4107C91.2115 18.6435 92.2124 19.6429 93.4471 19.6429C94.6818 19.6429 95.6827 18.6435 95.6827 17.4107C95.6827 16.178 94.6818 15.1786 93.4471 15.1786Z" fill="#A055FF"/>
<path d="M70.9156 70.8809C70.0425 70.0092 68.627 70.0092 67.754 70.8809C66.8809 71.7526 66.8809 73.166 67.754 74.0377C68.627 74.9094 70.0425 74.9094 70.9156 74.0377C71.7886 73.166 71.7886 71.7526 70.9156 70.8809Z" fill="#A055FF"/>
<path d="M117.074 24.7927C116.201 23.921 114.786 23.921 113.913 24.7927C113.04 25.6644 113.04 27.0777 113.913 27.9494C114.786 28.8211 116.201 28.8211 117.074 27.9494C117.947 27.0777 117.947 25.6644 117.074 24.7927Z" fill="#A055FF"/>
<path d="M71.8096 28.8422C72.6827 27.9705 72.6827 26.5572 71.8096 25.6855C70.9366 24.8138 69.5211 24.8138 68.6481 25.6855C67.775 26.5572 67.775 27.9705 68.6481 28.8422C69.5211 29.7139 70.9366 29.7139 71.8096 28.8422Z" fill="#A055FF"/>
<path d="M117.968 74.9304C118.841 74.0587 118.841 72.6454 117.968 71.7737C117.095 70.902 115.68 70.902 114.807 71.7737C113.934 72.6454 113.934 74.0587 114.807 74.9304C115.68 75.8021 117.095 75.8021 117.968 74.9304Z" fill="#A055FF"/>
<path d="M62.5962 49.5536C62.5962 48.3208 61.5953 47.3214 60.3606 47.3214C59.1259 47.3214 58.125 48.3208 58.125 49.5536C58.125 50.7863 59.1259 51.7857 60.3606 51.7857C61.5953 51.7857 62.5962 50.7863 62.5962 49.5536Z" fill="#A055FF"/>
<path d="M127.875 49.5536C127.875 48.3208 126.874 47.3214 125.639 47.3214C124.405 47.3214 123.404 48.3208 123.404 49.5536C123.404 50.7863 124.405 51.7857 125.639 51.7857C126.874 51.7857 127.875 50.7863 127.875 49.5536Z" fill="#A055FF"/>
<path d="M93 89.7322C114.977 89.7322 132.793 71.9435 132.793 50C132.793 28.0566 114.977 10.2679 93 10.2679C71.0228 10.2679 53.2067 28.0566 53.2067 50C53.2067 71.9435 71.0228 89.7322 93 89.7322Z" stroke="#D4B1FF"/>
<path d="M93.4471 87.5C92.2124 87.5 91.2115 88.4994 91.2115 89.7321C91.2115 90.9649 92.2124 91.9643 93.4471 91.9643C94.6818 91.9643 95.6827 90.9649 95.6827 89.7321C95.6827 88.4994 94.6818 87.5 93.4471 87.5Z" fill="#D4B1FF"/>
<path d="M93.4471 8.03571C92.2124 8.03571 91.2115 9.03508 91.2115 10.2679C91.2115 11.5006 92.2124 12.5 93.4471 12.5C94.6818 12.5 95.6827 11.5006 95.6827 10.2679C95.6827 9.03508 94.6818 8.03571 93.4471 8.03571Z" fill="#D4B1FF"/>
<path d="M55.8894 50C55.8894 48.7672 54.8885 47.7678 53.6539 47.7678C52.4192 47.7678 51.4183 48.7672 51.4183 50C51.4183 51.2328 52.4192 52.2321 53.6539 52.2321C54.8885 52.2321 55.8894 51.2328 55.8894 50Z" fill="#D4B1FF"/>
<path d="M135.476 50C135.476 48.7672 134.475 47.7678 133.24 47.7678C132.006 47.7678 131.005 48.7672 131.005 50C131.005 51.2328 132.006 52.2321 133.24 52.2321C134.475 52.2321 135.476 51.2328 135.476 50Z" fill="#D4B1FF"/>
<path d="M66.8897 23.4835C67.7627 22.6117 67.7627 21.1984 66.8897 20.3267C66.0166 19.455 64.6011 19.455 63.7281 20.3267C62.8551 21.1984 62.8551 22.6117 63.7281 23.4835C64.6011 24.3552 66.0166 24.3552 66.8897 23.4835Z" fill="#D4B1FF"/>
<path d="M123.166 79.6732C124.039 78.8015 124.039 77.3882 123.166 76.5165C122.293 75.6448 120.877 75.6448 120.004 76.5165C119.131 77.3882 119.131 78.8015 120.004 79.6732C120.877 80.5449 122.293 80.5449 123.166 79.6732Z" fill="#D4B1FF"/>
<path d="M120.004 23.4834C120.877 24.3551 122.293 24.3551 123.166 23.4834C124.039 22.6117 124.039 21.1984 123.166 20.3267C122.293 19.455 120.877 19.455 120.004 20.3267C119.131 21.1984 119.131 22.6117 120.004 23.4834Z" fill="#D4B1FF"/>
<path d="M63.7282 79.6732C64.6013 80.5449 66.0168 80.5449 66.8898 79.6732C67.7629 78.8015 67.7629 77.3882 66.8898 76.5165C66.0168 75.6448 64.6013 75.6448 63.7282 76.5165C62.8552 77.3882 62.8552 78.8015 63.7282 79.6732Z" fill="#D4B1FF"/>
<path d="M93 97.7678C119.422 97.7678 140.841 76.3814 140.841 50C140.841 23.6185 119.422 2.23212 93 2.23212C66.578 2.23212 45.1587 23.6185 45.1587 50C45.1587 76.3814 66.578 97.7678 93 97.7678Z" stroke="#EDDFFF"/>
<path d="M93.4471 4.46429C94.6818 4.46429 95.6827 3.46492 95.6827 2.23214C95.6827 0.999364 94.6818 0 93.4471 0C92.2124 0 91.2115 0.999364 91.2115 2.23214C91.2115 3.46492 92.2124 4.46429 93.4471 4.46429Z" fill="#EDDFFF"/>
<path d="M93.4471 100C94.6818 100 95.6827 99.0006 95.6827 97.7678C95.6827 96.5351 94.6818 95.5357 93.4471 95.5357C92.2124 95.5357 91.2115 96.5351 91.2115 97.7678C91.2115 99.0006 92.2124 100 93.4471 100Z" fill="#EDDFFF"/>
<path d="M25.0385 69.6429H0L11.2241 54.4643L0 39.2857H25.0385V69.6429Z" fill="#5602C1"/>
<path d="M21.4615 65.9632L25.0385 69.6429V39.2857H21.4615V65.9632Z" fill="#DB00FF"/>
<path d="M160.962 39.2857H186L174.776 54.4643L186 69.6429H160.962V39.2857Z" fill="#5602C1"/>
<path d="M164.538 65.9632L160.962 69.6429V39.2857H164.538V65.9632Z" fill="#DB00FF"/>
<path d="M164.538 35.7143H21.4615V66.0714H164.538V35.7143Z" fill="#7000FF"/>
<path d="M49.7057 54.5061V44.1371C49.7057 43.893 49.7931 43.6837 49.9677 43.5094C50.1424 43.3279 50.3484 43.2373 50.586 43.2373C50.8235 43.2373 51.0296 43.3244 51.2043 43.4989C51.3789 43.6733 51.4662 43.879 51.4662 44.1162V54.5061C51.4662 54.7363 51.5536 54.9386 51.7282 55.113C51.9028 55.2804 52.109 55.3641 52.3465 55.3641H55.9514C56.1959 55.3641 56.402 55.2804 56.5697 55.113C56.7443 54.9456 56.8316 54.7433 56.8316 54.5061V44.1371C56.8316 43.886 56.9155 43.6733 57.0831 43.4989C57.2578 43.3244 57.4674 43.2373 57.7119 43.2373C57.9564 43.2373 58.1625 43.3244 58.3301 43.4989C58.5048 43.6733 58.5921 43.886 58.5921 44.1371V54.4852C58.5921 55.2106 58.3301 55.835 57.8062 56.3581C57.2892 56.8812 56.671 57.1428 55.9514 57.1428H52.3465C51.6199 57.1428 50.9982 56.8847 50.4812 56.3686C49.9642 55.8524 49.7057 55.2316 49.7057 54.5061ZM62.8819 56.2639V43.2373H69.1066C69.8262 43.2373 70.4444 43.4989 70.9614 44.022C71.4854 44.5452 71.7473 45.1694 71.7473 45.8949V46.8994C71.7473 47.6319 71.4889 48.2596 70.972 48.7828C70.4549 49.2989 69.8332 49.557 69.1066 49.557H67.9853L71.5902 55.7303C71.702 55.9117 71.7579 56.093 71.7579 56.2744C71.7579 56.5116 71.667 56.7173 71.4854 56.8918C71.3038 57.0591 71.0977 57.1428 70.8671 57.1428C70.5178 57.1428 70.2524 56.9859 70.0707 56.672L65.9314 49.557H64.6634V56.2639C64.6634 56.5081 64.5726 56.7173 64.391 56.8918C64.2163 57.0591 64.0067 57.1428 63.7622 57.1428C63.5176 57.1428 63.308 57.0591 63.1334 56.8918C62.9657 56.7173 62.8819 56.5081 62.8819 56.2639ZM64.6424 47.7993H69.1066C69.3512 47.7993 69.5572 47.7155 69.7249 47.5481C69.8995 47.3737 69.9869 47.1644 69.9869 46.9203V45.8949C69.9869 45.6508 69.8995 45.445 69.7249 45.2776C69.5572 45.1032 69.3512 45.0161 69.1066 45.0161H64.6424V47.7993ZM76.0477 55.9186L79.6106 43.8965C79.7503 43.457 80.0437 43.2373 80.4909 43.2373C80.924 43.2373 81.1965 43.4221 81.3083 43.7919L84.8188 56.0024C84.8467 56.093 84.8607 56.1803 84.8607 56.2639C84.8607 56.5081 84.7769 56.7173 84.6092 56.8918C84.4416 57.0591 84.2494 57.1428 84.0328 57.1428C83.5718 57.1428 83.2784 56.9301 83.1526 56.5046L82.44 54.119H78.4264L77.651 56.672C77.63 56.7836 77.5427 56.8918 77.389 56.9963C77.2353 57.094 77.0677 57.1428 76.886 57.1428C76.6275 57.1428 76.4144 57.0556 76.2467 56.8812C76.0791 56.7069 75.9953 56.4941 75.9953 56.243C75.9953 56.1384 76.0127 56.0303 76.0477 55.9186ZM80.4699 47.3075L78.9609 52.3403H81.9265L80.4699 47.3075ZM97.9951 44.1371V57.1428H95.6271L90.8904 46.3448V56.2639C90.8904 56.5081 90.8028 56.7173 90.6284 56.8918C90.4603 57.0591 90.2546 57.1428 90.0096 57.1428C89.7655 57.1428 89.5553 57.0591 89.381 56.8918C89.2134 56.7173 89.1296 56.5081 89.1296 56.2639V43.2373H91.4663L96.2138 54.0144V44.1371C96.2138 43.893 96.3005 43.6837 96.4758 43.5094C96.6573 43.3279 96.8701 43.2373 97.1151 43.2373C97.3593 43.2373 97.5649 43.3244 97.7331 43.4989C97.9074 43.6733 97.9951 43.886 97.9951 44.1371ZM103.123 43.2373H110.249C110.479 43.2373 110.682 43.3244 110.857 43.4989C111.038 43.6733 111.13 43.879 111.13 44.1162C111.13 44.3603 111.042 44.5731 110.868 44.7544C110.692 44.9288 110.487 45.0161 110.249 45.0161H107.587V55.385H110.249C110.494 55.385 110.699 55.4722 110.868 55.6466C111.042 55.814 111.13 56.0198 111.13 56.2639C111.13 56.5081 111.042 56.7173 110.868 56.8918C110.692 57.0591 110.487 57.1428 110.249 57.1428H103.123C102.878 57.1428 102.669 57.0591 102.495 56.8918C102.327 56.7173 102.243 56.5081 102.243 56.2639C102.243 56.0198 102.327 55.814 102.495 55.6466C102.669 55.4722 102.878 55.385 103.123 55.385H105.827V45.0161H103.123C102.878 45.0161 102.669 44.9288 102.495 44.7544C102.327 44.5801 102.243 44.3743 102.243 44.1371C102.243 43.886 102.327 43.6733 102.495 43.4989C102.669 43.3244 102.878 43.2373 103.123 43.2373ZM115.377 54.5061V44.1371C115.377 43.893 115.465 43.6837 115.639 43.5094C115.814 43.3279 116.02 43.2373 116.257 43.2373C116.495 43.2373 116.701 43.3244 116.876 43.4989C117.05 43.6733 117.138 43.879 117.138 44.1162V54.5061C117.138 54.7363 117.225 54.9386 117.4 55.113C117.574 55.2804 117.781 55.3641 118.018 55.3641H121.622C121.867 55.3641 122.073 55.2804 122.241 55.113C122.416 54.9456 122.503 54.7433 122.503 54.5061V44.1371C122.503 43.886 122.587 43.6733 122.755 43.4989C122.929 43.3244 123.139 43.2373 123.383 43.2373C123.628 43.2373 123.834 43.3244 124.002 43.4989C124.176 43.6733 124.264 43.886 124.264 44.1371V54.4852C124.264 55.2106 124.002 55.835 123.478 56.3581C122.961 56.8812 122.342 57.1428 121.622 57.1428H118.018C117.292 57.1428 116.669 56.8847 116.152 56.3686C115.636 55.8524 115.377 55.2316 115.377 54.5061ZM132.074 48.6991V48.2492L130.251 45.6543V56.2639C130.251 56.5081 130.164 56.7173 129.989 56.8918C129.822 57.0591 129.615 57.1428 129.371 57.1428C129.126 57.1428 128.917 57.0556 128.742 56.8812C128.574 56.7069 128.49 56.5011 128.49 56.2639V43.2373H130.764L132.934 46.3867L135.166 43.2373H137.398V56.2639C137.398 56.5081 137.307 56.7173 137.126 56.8918C136.95 57.0591 136.741 57.1428 136.497 57.1428C136.259 57.1428 136.053 57.0556 135.878 56.8812C135.704 56.7069 135.616 56.5011 135.616 56.2639V45.6961L133.835 48.2073V48.6991C133.835 48.9362 133.747 49.142 133.573 49.3164C133.399 49.4908 133.192 49.5779 132.955 49.5779C132.71 49.5779 132.501 49.4908 132.326 49.3164C132.158 49.142 132.074 48.9362 132.074 48.6991Z" fill="white"/>
</svg>
